<?xml version="1.0" encoding="UTF-8" standalone="no"?>
<!-- Generator: Adobe Illustrator 27.5.0, SVG Export Plug-In . SVG Version: 6.00 Build 0)  -->

<svg
   version="1.1"
   id="ELEMENTS"
   x="0px"
   y="0px"
   viewBox="0 0 73.641998 73.641998"
   xmlSpace="preserve"
   width="73.641998"
   height="73.641998"
   xmlns="http://www.w3.org/2000/svg"
   xmlnsSvg="http://www.w3.org/2000/svg"><defs
   id="defs914" />
<g
   id="g909">
	
	
	
	
	
	
	<g
   id="g230"
   transform="translate(-76.821,-158.119)">
		
			<radialGradient
   id="SVGID_00000150063943251987829240000015610092372621109922_"
   cx="127.0996"
   cy="212.46539"
   r="57.244301"
   gradientUnits="userSpaceOnUse">
			<stop
   offset="0.1061"
   style="stop-color:#1B1464"
   id="stop197" />
			<stop
   offset="0.2432"
   style="stop-color:#534E8A"
   id="stop199" />
			<stop
   offset="0.3867"
   style="stop-color:#8783AD"
   id="stop201" />
			<stop
   offset="0.5275"
   style="stop-color:#B2B0CB"
   id="stop203" />
			<stop
   offset="0.662"
   style="stop-color:#D4D2E1"
   id="stop205" />
			<stop
   offset="0.7888"
   style="stop-color:#ECEBF2"
   id="stop207" />
			<stop
   offset="0.9048"
   style="stop-color:#FAFAFC"
   id="stop209" />
			<stop
   offset="1"
   style="stop-color:#FFFFFF"
   id="stop211" />
		</radialGradient>
		
			
		<g
   id="g228">
			<path
   style="fill:#f0b90b"
   d="m 113.642,158.119 c 20.336,0 36.821,16.485 36.821,36.821 0,20.336 -16.485,36.821 -36.821,36.821 -20.336,0 -36.821,-16.485 -36.821,-36.821 0,-20.336 16.485,-36.821 36.821,-36.821"
   id="path216" />
			<polygon
   style="fill:#ffffff"
   points="104.114,190.984 109.689,185.428 110.865,184.252 113.651,181.466 123.138,190.984 128.661,185.428 113.651,170.392 98.591,185.428 "
   id="polygon218" />
			
				<rect
   x="109.737"
   y="191.009"
   transform="matrix(0.7071,-0.7071,0.7071,0.7071,-104.5464,137.4602)"
   style="fill:#ffffff"
   width="7.8429999"
   height="7.8429999"
   id="rect220" />
			<polygon
   style="fill:#ffffff"
   points="123.138,198.907 113.648,208.398 110.315,205.065 109.702,204.452 104.114,198.907 98.591,204.43 113.651,219.465 128.661,204.43 "
   id="polygon222" />
			
				<rect
   x="90.719002"
   y="191.024"
   transform="matrix(0.7071,-0.7071,0.7071,0.7071,-110.1273,124.0171)"
   style="fill:#ffffff"
   width="7.8429999"
   height="7.8429999"
   id="rect224" />
			
				<rect
   x="128.724"
   y="191.021"
   transform="matrix(0.7071,-0.7071,0.7071,0.7071,-98.9943,150.8918)"
   style="fill:#ffffff"
   width="7.8429999"
   height="7.8429999"
   id="rect226" />
		</g>
	</g>
	
	
	
	
	
	
	
	
	
	
	
	
	
	
	
	
	
	
	
	
	
	
	
</g>
</svg>
