<?xml version="1.0" encoding="UTF-8" standalone="no"?>
<!-- Generator: Adobe Illustrator 27.5.0, SVG Export Plug-In . SVG Version: 6.00 Build 0)  -->

<svg
   version="1.1"
   id="ELEMENTS"
   x="0px"
   y="0px"
   viewBox="0 0 73.641998 73.641998"
   xmlSpace="preserve"
   width="73.641998"
   height="73.641998"
   xmlns="http://www.w3.org/2000/svg"
   xmlnsSvg="http://www.w3.org/2000/svg"><defs
   id="defs914" />
<g
   id="g909"
   transform="translate(-301.05699,-58.620003)">
	
	
	
	
	
	<g
   id="g195">
		
			<radialGradient
   id="SVGID_00000061448812780377991480000010116739009390046095_"
   cx="351.93881"
   cy="111.7679"
   r="57.244301"
   gradientUnits="userSpaceOnUse">
			<stop
   offset="0.1061"
   style="stop-color:#1B1464"
   id="stop159" />
			<stop
   offset="0.2432"
   style="stop-color:#534E8A"
   id="stop161" />
			<stop
   offset="0.3867"
   style="stop-color:#8783AD"
   id="stop163" />
			<stop
   offset="0.5275"
   style="stop-color:#B2B0CB"
   id="stop165" />
			<stop
   offset="0.662"
   style="stop-color:#D4D2E1"
   id="stop167" />
			<stop
   offset="0.7888"
   style="stop-color:#ECEBF2"
   id="stop169" />
			<stop
   offset="0.9048"
   style="stop-color:#FAFAFC"
   id="stop171" />
			<stop
   offset="1"
   style="stop-color:#FFFFFF"
   id="stop173" />
		</radialGradient>
		
			
		<g
   id="g193">
			
				<linearGradient
   id="SVGID_00000000214426379684775070000012701835370643115414_"
   gradientUnits="userSpaceOnUse"
   x1="370.15179"
   y1="62.5303"
   x2="310.29321"
   y2="123.5703">
				<stop
   offset="0"
   style="stop-color:#00FFA3"
   id="stop178" />
				<stop
   offset="1"
   style="stop-color:#DC1FFF"
   id="stop180" />
			</linearGradient>
			<circle
   style="fill:url(#SVGID_00000000214426379684775070000012701835370643115414_)"
   cx="337.87799"
   cy="95.441002"
   r="36.820999"
   id="circle183" />
			<g
   id="g191">
				<path
   style="fill:#ffffff"
   d="m 320.438,106.1 c 0.312,-0.312 0.74,-0.494 1.195,-0.494 h 41.231 c 0.753,0 1.13,0.909 0.598,1.442 l -8.145,8.145 c -0.312,0.312 -0.74,0.494 -1.195,0.494 h -41.231 c -0.753,0 -1.13,-0.909 -0.598,-1.442 z"
   id="path185" />
				<path
   style="fill:#ffffff"
   d="m 320.438,75.69 c 0.325,-0.312 0.753,-0.494 1.195,-0.494 h 41.231 c 0.753,0 1.13,0.909 0.598,1.442 l -8.145,8.145 c -0.312,0.312 -0.74,0.494 -1.195,0.494 h -41.231 c -0.753,0 -1.13,-0.909 -0.598,-1.442 z"
   id="path187" />
				<path
   style="fill:#ffffff"
   d="m 355.317,90.798 c -0.312,-0.312 -0.74,-0.494 -1.195,-0.494 h -41.231 c -0.753,0 -1.13,0.909 -0.598,1.442 l 8.145,8.145 c 0.312,0.312 0.74,0.494 1.195,0.494 h 41.231 c 0.753,0 1.13,-0.909 0.598,-1.442 z"
   id="path189" />
			</g>
		</g>
	</g>
	
	
	
	
	
	
	
	
	
	
	
	
	
	
	
	
	
	
	
	
	
	
	
	
</g>
</svg>
