<?xml version="1.0" encoding="UTF-8" standalone="no"?>
<!-- Generator: Adobe Illustrator 27.5.0, SVG Export Plug-In . SVG Version: 6.00 Build 0)  -->

<svg
   version="1.1"
   id="ELEMENTS"
   x="0px"
   y="0px"
   viewBox="0 0 73.640312 73.640312"
   xmlSpace="preserve"
   width="19.483999mm"
   height="19.483999mm"
   xmlns="http://www.w3.org/2000/svg"
   xmlnsSvg="http://www.w3.org/2000/svg"><defs
   id="defs914" />
<g
   id="g909">
	
	
	
	
	
	
	
	<g
   id="g257"
   transform="translate(-413.177,-58.62)">
		
			<radialGradient
   id="SVGID_00000134239243086457060990000000009549472359915927_"
   cx="464.35849"
   cy="111.7679"
   r="57.244301"
   gradientUnits="userSpaceOnUse">
			<stop
   offset="0.1061"
   style="stop-color:#1B1464"
   id="stop232" />
			<stop
   offset="0.2432"
   style="stop-color:#534E8A"
   id="stop234" />
			<stop
   offset="0.3867"
   style="stop-color:#8783AD"
   id="stop236" />
			<stop
   offset="0.5275"
   style="stop-color:#B2B0CB"
   id="stop238" />
			<stop
   offset="0.662"
   style="stop-color:#D4D2E1"
   id="stop240" />
			<stop
   offset="0.7888"
   style="stop-color:#ECEBF2"
   id="stop242" />
			<stop
   offset="0.9048"
   style="stop-color:#FAFAFC"
   id="stop244" />
			<stop
   offset="1"
   style="stop-color:#FFFFFF"
   id="stop246" />
		</radialGradient>
		
			
		<g
   id="g255">
			<path
   style="fill:#53ae94"
   d="m 449.998,58.62 c 20.335,0 36.821,16.486 36.821,36.821 0,20.335 -16.487,36.821 -36.821,36.821 -20.334,0 -36.821,-16.482 -36.821,-36.821 0,-20.339 16.484,-36.821 36.821,-36.821"
   id="path251" />
			<path
   style="fill:#ffffff"
   d="m 454.542,90.535 v -5.478 h 12.526 V 76.711 H 432.96 v 8.346 h 12.527 v 5.473 c -10.181,0.468 -17.836,2.484 -17.836,4.899 0,2.415 7.659,4.432 17.836,4.902 v 17.545 h 9.058 v -17.547 c 10.163,-0.469 17.802,-2.484 17.802,-4.897 0,-2.413 -7.64,-4.428 -17.802,-4.897 m 0,8.31 V 98.84 c -0.255,0.016 -1.569,0.095 -4.492,0.095 -2.337,0 -3.982,-0.066 -4.561,-0.096 v 0.007 c -8.995,-0.398 -15.708,-1.965 -15.708,-3.839 0,-1.874 6.715,-3.438 15.708,-3.838 v 6.116 c 0.589,0.04 2.274,0.14 4.6,0.14 2.793,0 4.197,-0.116 4.455,-0.14 V 91.17 c 8.977,0.4 15.675,1.968 15.675,3.835 0,1.868 -6.701,3.436 -15.675,3.836"
   id="path253" />
		</g>
	</g>
	
	
	
	
	
	
	
	
	
	
	
	
	
	
	
	
	
	
	
	
	
	
</g>
</svg>
