<?xml version="1.0" encoding="UTF-8" standalone="no"?>
<svg
   viewBox="0 0 73.64031 73.64031"
   fill="none"
   version="1.1"
   id="svg19"
   xmlns="http://www.w3.org/2000/svg"
   xmlnsSvg="http://www.w3.org/2000/svg">
  <g
     clipPath="url(#clip0_118_2651)"
     id="g12"
     transform="matrix(1.3150057,0,0,1.3150056,-0.21750853,0)">
    <path
       d="m 28.1654,56 c 15.464,0 28,-12.536 28,-28 0,-15.464 -12.536,-28 -28,-28 -15.464,0 -27.999995,12.536 -27.999995,28 0,15.464 12.535995,28 27.999995,28 z"
       fill="#0098ea"
       id="path2" />
    <path
       d="M 37.7257,15.6277 H 18.604 c -3.5158,0 -5.7441,3.7925 -3.9754,6.8584 l 11.8012,20.4548 c 0.7701,1.3356 2.7,1.3356 3.4701,0 L 41.7035,22.4861 c 1.7664,-3.061 -0.462,-6.8584 -3.9754,-6.8584 z M 26.4202,36.8068 23.8501,31.8327 17.6487,20.7414 c -0.4091,-0.7099 0.0962,-1.6196 0.9529,-1.6196 h 7.8162 v 17.6874 z m 12.256,-16.0678 -6.199,11.0961 -2.5701,4.9717 V 19.1194 h 7.8162 c 0.8567,0 1.362,0.9097 0.9529,1.6196 z"
       fill="#ffffff"
       id="path4" />
  </g>
  <defs
     id="defs17">
    <clipPath
       id="clip0_118_2651">
      <rect
         width="147"
         height="56"
         fill="#ffffff"
         id="rect14"
         x="0"
         y="0" />
    </clipPath>
  </defs>
  <rect
     style="fill:none;stroke-width:0.936621"
     id="rect2414"
     width="56.554401"
     height="55.560177"
     x="-0.16006789"
     y="0.23876892"
     ry="27.780088" />
</svg>
