<?xml version="1.0" encoding="UTF-8" standalone="no"?>
<svg
   version="1.0"
   width="19.483999mm"
   height="19.483999mm"
   viewBox="0 0 55.230234 55.230234"
   preserveAspectRatio="xMidYMid"
   id="svg14"
   xmlnsSvg="http://www.w3.org/2000/svg">
  <defs id="defs18" />
  <g
     transform="matrix(0.01079742,0,0,-0.01079689,-0.02831173,55.262542)"
     fill="#000000"
     stroke="none"
     id="g12">
    <ellipse
       style="fill:#ffffff;stroke-width:65.0364"
       id="path845"
       cx="2575.4153"
       cy="-2545.4565"
       transform="scale(1,-1)"
       rx="2494.0342"
       ry="2494.1565" />
    <path
       d="M 2340,5109 C 1741,5058 1190,4800 759,4370 552,4163 419,3985 294,3746 -122,2947 -91,1990 377,1226 583,891 904,572 1240,370 c 818,-492 1844,-489 2654,7 333,205 655,528 853,858 496,825 494,1841 -4,2660 -138,226 -401,521 -603,677 -525,404 -1156,592 -1800,537 z M 1543,3699 c 814,-145 1788,-329 1816,-344 40,-20 471,-429 507,-480 23,-32 16,-67 -24,-120 -34,-45 -1101,-1337 -1341,-1625 -75,-89 -102,-115 -121,-115 -30,0 -30,0 -124,240 -41,105 -221,543 -401,975 -464,1116 -575,1392 -575,1440 0,33 31,60 68,60 13,0 100,-14 195,-31 z"
       id="path2"
       style="fill:#ff0e12;fill-opacity:1" />
    <path
       d="m 1700,3486 c 40,-37 864,-708 876,-713 7,-2 137,99 289,226 152,127 274,231 270,231 -4,0 -328,61 -721,135 -392,74 -716,135 -720,135 -5,0 -2,-6 6,-14 z"
       id="path4"
       style="fill:#ff0e12;fill-opacity:1" />
    <path
       d="m 1560,3416 c 0,-10 791,-1949 799,-1958 4,-4 38,256 75,578 40,340 65,588 60,593 -5,5 -205,174 -444,376 -239,202 -447,379 -462,393 -16,14 -28,22 -28,18 z"
       id="path6"
       style="fill:#ff0e12;fill-opacity:1" />
    <path
       d="m 3058,2957 c -141,-117 -255,-213 -254,-215 2,-1 183,29 402,68 220,38 403,70 408,70 8,0 -132,136 -254,247 l -45,41 z"
       id="path8"
       style="fill:#ff0e12;fill-opacity:1" />
    <path
       d="m 3100,2636 -435,-71 -62,-525 c -34,-289 -61,-539 -60,-557 2,-29 46,21 517,590 283,341 517,625 518,629 6,13 -21,9 -478,-66 z"
       id="path10"
       style="opacity:1;fill:#ff0e12;fill-opacity:1" />
  </g>
</svg>
