<?xml version="1.0" encoding="UTF-8" standalone="no"?>
<!-- Created with Inkscape (http://www.inkscape.org/) -->

<svg
   width="1500"
   height="1500"
   viewBox="0 0 396.87499 396.875"
   version="1.1"
   id="svg5"
   xml:space="preserve"
   xmlns="http://www.w3.org/2000/svg"
   xmlns:svg="http://www.w3.org/2000/svg"><defs
     id="defs2" /><g
     id="layer1"><path
       style="fill:#ff8911;fill-opacity:1;stroke:none;stroke-width:0.552045"
       d="M 186.05284,395.92159 C 156.2192,393.5133 133.61237,387.37068 109.02712,374.99255 89.135208,364.97741 73.584106,353.70764 57.692355,337.79068 25.911048,305.95892 6.6263532,266.12228 1.0265016,220.73526 -0.34804912,209.59447 -0.34086812,186.01343 1.0403707,175.19158 5.0400121,143.85484 15.207544,115.67978 31.606008,90.491717 67.470675,35.40354 126.77142,2.0638251 192.40135,0.09030596 258.66914,-1.9023928 320.61244,29.175438 359.98908,84.171425 c 28.46128,39.750915 41.18877,92.523285 34.13437,141.532235 -2.9899,20.77157 -8.62698,39.23544 -17.69636,57.96313 -10.3835,21.4412 -22.03331,37.88051 -38.54638,54.39355 -34.08238,34.08238 -77.64204,53.99082 -126.1578,57.65895 -6.8711,0.51951 -20.41802,0.62627 -25.67007,0.2023 z"
       id="path292" /><path
       id="rect255"
       style="fill:#241c1c;stroke-width:0.263342"
       d="m 166.50848,85.491201 c -4.78234,4.78234 -7.73237,11.39711 -7.73237,18.726059 0,14.6579 11.80053,26.45843 26.45843,26.45843 l 43.66472,1e-5 -142.922216,142.92222 c -10.364707,10.36469 -10.3647,27.05302 0,37.41772 10.364701,10.36471 27.053026,10.36471 37.417736,0 l 141.65571,-141.65571 3.7e-4,42.5053 c 0,14.6579 11.80053,26.45842 26.45843,26.45842 14.6579,1e-5 26.45842,-11.80053 26.45842,-26.45843 l -3.6e-4,-102.75662 c 0.99449,-6.68986 -0.59129,-13.680439 -4.75614,-19.405327 -4.71787,-7.202028 -12.85439,-11.944072 -22.14333,-11.944083 l -105.83336,-3.59e-4 c -7.32895,2e-6 -13.9437,2.950058 -18.72604,7.73237 z" /></g></svg>
